{"accessors":[{"bufferView":0,"byteOffset":0,"componentType":5126,"count":146,"max":[1,0.0499999970197678,1],"min":[-1,-0.10000000149012,-1],"normalized":false,"type":"VEC3"},{"bufferView":1,"byteOffset":0,"componentType":5126,"count":146,"max":[1,1,0.462603360414505,1],"min":[-0.0000164645644,-0.99942576885223,-0.61568140983582,-1],"normalized":false,"type":"VEC4"},{"bufferView":2,"byteOffset":0,"componentType":5126,"count":146,"max":[1,1,1],"min":[-1,-0.00001525925472,-1],"normalized":false,"type":"VEC3"},{"bufferView":3,"byteOffset":0,"componentType":5126,"count":146,"max":[0.966103911399841,0.231065034866333],"min":[0.894263863563538,0.0237112045288086],"normalized":false,"type":"VEC2"},{"bufferView":4,"byteOffset":0,"componentType":5123,"count":234,"max":[145],"min":[0],"normalized":false,"type":"SCALAR"}],"asset":{"generator":"Godot Engine v4.3.stable.steam@77dcf97d82cbfe4e4615475fa52ca03da645dbd8","version":"2.0"},"bufferViews":[{"buffer":0,"byteLength":1752,"byteOffset":0,"byteStride":12,"target":34962},{"buffer":0,"byteLength":2336,"byteOffset":1752,"byteStride":16,"target":34962},{"buffer":0,"byteLength":1752,"byteOffset":4088,"byteStride":12,"target":34962},{"buffer":0,"byteLength":1168,"byteOffset":5840,"byteStride":8,"target":34962},{"buffer":0,"byteLength":468,"byteOffset":7008,"target":34963}],"buffers":[{"byteLength":7476,"uri":"mesh_library0.bin"}],"extensions":{"OMI_physics_shape":{"shapes":[{"trimesh":{"mesh":0},"type":"trimesh"}]}},"extensionsUsed":["GODOT_single_root","OMI_physics_body","OMI_physics_shape"],"images":[{"uri":"textures%2Ftexture_albedo000.png"}],"materials":[{"extensions":{},"name":"texture","pbrMetallicRoughness":{"baseColorFactor":[0.99999988079071,0.99999988079071,0.99999988079071,1],"baseColorTexture":{"index":0},"metallicFactor":0,"roughnessFactor":0.449999988079071}}],"meshes":[{"extras":{"targetNames":[]},"primitives":[{"attributes":{"NORMAL":2,"POSITION":0,"TANGENT":1,"TEXCOORD_0":3},"indices":4,"material":0,"mode":4}]}],"nodes":[{"children":[1],"name":"mesh_library"},{"children":[2],"mesh":0,"name":"floor_wood_small_dark","translation":[0.978888928890228,0.204743266105652,0.978171467781067]},{"children":[3],"extensions":{"OMI_physics_body":{"motion":{"type":"static"}}},"name":"StaticBody3D"},{"extensions":{"OMI_physics_body":{"collider":{"shape":0}}},"name":"CollisionShape3D"}],"samplers":[{"magFilter":9729,"minFilter":9987,"wrapS":10497,"wrapT":10497}],"scene":0,"scenes":[{"nodes":[0]}],"textures":[{"sampler":0,"source":0}]}